<mxfile host="65bd71144e">
    <diagram id="amDHZ1oWJzgdcDQpViPx" name="Page-1">
        <mxGraphModel dx="1067" dy="707" grid="0" gridSize="10" guides="1" tooltips="1" connect="1" arrows="1" fold="1" page="1" pageScale="1" pageWidth="850" pageHeight="1100" math="0" shadow="0">
            <root>
                <mxCell id="0"/>
                <mxCell id="1" parent="0"/>
                <UserObject label="CM" treeRoot="1" id="6">
                    <mxCell style="whiteSpace=wrap;html=1;align=center;treeFolding=1;treeMoving=1;newEdgeStyle={&quot;edgeStyle&quot;:&quot;elbowEdgeStyle&quot;,&quot;startArrow&quot;:&quot;none&quot;,&quot;endArrow&quot;:&quot;none&quot;};" vertex="1" parent="1">
                        <mxGeometry x="11" y="40" width="80" height="20" as="geometry"/>
                    </mxCell>
                </UserObject>
                <UserObject label="SM" treeRoot="1" id="7">
                    <mxCell style="whiteSpace=wrap;html=1;align=center;treeFolding=1;treeMoving=1;newEdgeStyle={&quot;edgeStyle&quot;:&quot;elbowEdgeStyle&quot;,&quot;startArrow&quot;:&quot;none&quot;,&quot;endArrow&quot;:&quot;none&quot;};" vertex="1" parent="1">
                        <mxGeometry x="331" y="40" width="80" height="20" as="geometry"/>
                    </mxCell>
                </UserObject>
                <UserObject label="SOC &amp;amp; AP" treeRoot="1" id="8">
                    <mxCell style="whiteSpace=wrap;html=1;align=center;treeFolding=1;treeMoving=1;newEdgeStyle={&quot;edgeStyle&quot;:&quot;elbowEdgeStyle&quot;,&quot;startArrow&quot;:&quot;none&quot;,&quot;endArrow&quot;:&quot;none&quot;};" vertex="1" parent="1">
                        <mxGeometry x="651" y="40" width="80" height="20" as="geometry"/>
                    </mxCell>
                </UserObject>
                <mxCell id="15" value="" style="endArrow=none;html=1;entryX=0.5;entryY=1;entryDx=0;entryDy=0;" edge="1" parent="1" target="6">
                    <mxGeometry width="50" height="50" relative="1" as="geometry">
                        <mxPoint x="51" y="326" as="sourcePoint"/>
                        <mxPoint x="421" y="100" as="targetPoint"/>
                    </mxGeometry>
                </mxCell>
                <mxCell id="16" value="" style="endArrow=none;html=1;entryX=0.5;entryY=1;entryDx=0;entryDy=0;" edge="1" parent="1">
                    <mxGeometry width="50" height="50" relative="1" as="geometry">
                        <mxPoint x="371" y="318" as="sourcePoint"/>
                        <mxPoint x="370.5" y="60" as="targetPoint"/>
                    </mxGeometry>
                </mxCell>
                <mxCell id="17" value="" style="endArrow=none;html=1;entryX=0.5;entryY=1;entryDx=0;entryDy=0;" edge="1" parent="1">
                    <mxGeometry width="50" height="50" relative="1" as="geometry">
                        <mxPoint x="691" y="343" as="sourcePoint"/>
                        <mxPoint x="690.5" y="60" as="targetPoint"/>
                    </mxGeometry>
                </mxCell>
                <mxCell id="18" value="" style="endArrow=classic;html=1;" edge="1" parent="1">
                    <mxGeometry width="50" height="50" relative="1" as="geometry">
                        <mxPoint x="51" y="119" as="sourcePoint"/>
                        <mxPoint x="371" y="119" as="targetPoint"/>
                    </mxGeometry>
                </mxCell>
                <mxCell id="19" value="向SM发布固件" style="text;html=1;strokeColor=none;fillColor=none;align=left;verticalAlign=middle;whiteSpace=wrap;rounded=0;" vertex="1" parent="1">
                    <mxGeometry x="53" y="103" width="98" height="20" as="geometry"/>
                </mxCell>
                <mxCell id="20" value="" style="endArrow=classic;html=1;" edge="1" parent="1">
                    <mxGeometry width="50" height="50" relative="1" as="geometry">
                        <mxPoint x="51" y="70" as="sourcePoint"/>
                        <mxPoint x="51" y="90" as="targetPoint"/>
                        <Array as="points">
                            <mxPoint x="71" y="70"/>
                            <mxPoint x="81" y="80"/>
                            <mxPoint x="71" y="90"/>
                        </Array>
                    </mxGeometry>
                </mxCell>
                <mxCell id="21" value="固件构建/加密/签名" style="text;html=1;strokeColor=none;fillColor=none;align=left;verticalAlign=middle;whiteSpace=wrap;rounded=0;" vertex="1" parent="1">
                    <mxGeometry x="81" y="70" width="120" height="20" as="geometry"/>
                </mxCell>
                <mxCell id="22" value="" style="endArrow=classic;html=1;" edge="1" parent="1">
                    <mxGeometry width="50" height="50" relative="1" as="geometry">
                        <mxPoint x="371" y="130" as="sourcePoint"/>
                        <mxPoint x="371" y="150" as="targetPoint"/>
                        <Array as="points">
                            <mxPoint x="391" y="130"/>
                            <mxPoint x="401" y="140"/>
                            <mxPoint x="391" y="150"/>
                        </Array>
                    </mxGeometry>
                </mxCell>
                <mxCell id="23" value="二次签名/预发布验证，通过后进行更新登记" style="text;html=1;strokeColor=none;fillColor=none;align=left;verticalAlign=middle;whiteSpace=wrap;rounded=0;" vertex="1" parent="1">
                    <mxGeometry x="401" y="130" width="250" height="20" as="geometry"/>
                </mxCell>
                <mxCell id="24" value="" style="endArrow=classic;html=1;" edge="1" parent="1">
                    <mxGeometry width="50" height="50" relative="1" as="geometry">
                        <mxPoint x="691" y="182" as="sourcePoint"/>
                        <mxPoint x="371" y="182" as="targetPoint"/>
                    </mxGeometry>
                </mxCell>
                <mxCell id="25" value="新设备登记 / 升级查询（安全交换请求）" style="text;html=1;strokeColor=none;fillColor=none;align=right;verticalAlign=middle;whiteSpace=wrap;rounded=0;" vertex="1" parent="1">
                    <mxGeometry x="473" y="162" width="218" height="20" as="geometry"/>
                </mxCell>
                <mxCell id="27" value="使用&lt;b&gt;安全传输&lt;/b&gt;下发最新版本" style="text;html=1;strokeColor=none;fillColor=none;align=left;verticalAlign=middle;whiteSpace=wrap;rounded=0;" vertex="1" parent="1">
                    <mxGeometry x="372" y="219" width="180" height="20" as="geometry"/>
                </mxCell>
                <mxCell id="28" value="" style="endArrow=classic;html=1;" edge="1" parent="1">
                    <mxGeometry width="50" height="50" relative="1" as="geometry">
                        <mxPoint x="371" y="239" as="sourcePoint"/>
                        <mxPoint x="691" y="239" as="targetPoint"/>
                    </mxGeometry>
                </mxCell>
                <mxCell id="29" value="" style="endArrow=classic;html=1;" edge="1" parent="1">
                    <mxGeometry width="50" height="50" relative="1" as="geometry">
                        <mxPoint x="691" y="250" as="sourcePoint"/>
                        <mxPoint x="691" y="270" as="targetPoint"/>
                        <Array as="points">
                            <mxPoint x="711" y="250"/>
                            <mxPoint x="721" y="260"/>
                            <mxPoint x="711" y="270"/>
                        </Array>
                    </mxGeometry>
                </mxCell>
                <mxCell id="30" value="使用cm/sm验签/解密&lt;br&gt;后使用&lt;b&gt;安全存储&lt;/b&gt;导出&lt;br&gt;存储在AP端" style="text;html=1;strokeColor=none;fillColor=none;align=left;verticalAlign=middle;whiteSpace=wrap;rounded=0;" vertex="1" parent="1">
                    <mxGeometry x="722" y="250" width="118" height="20" as="geometry"/>
                </mxCell>
                <mxCell id="32" value="&lt;h1&gt;&lt;span style=&quot;background-color: initial; font-size: 12px; font-weight: normal;&quot;&gt;* CM/SM的流程与供应方原始方案基本上保持一致&lt;/span&gt;&lt;/h1&gt;&lt;div&gt;&lt;span style=&quot;background-color: initial; font-size: 12px; font-weight: normal;&quot;&gt;* 可一步步向正式方案平滑演进，相关工作可以最大程度复用（不仅包含第一阶段的fw，同时兼容app-fw，以及009的流程）&lt;/span&gt;&lt;/div&gt;&lt;p&gt;* 使用安全传输解决外部注入密钥的安全性问题：通过限制安全传输使得固件升级包对外部不可见，从而让弱安全性的外部注入密钥的保护的数据不公开。&lt;/p&gt;" style="text;html=1;strokeColor=default;fillColor=none;spacing=5;spacingTop=-20;whiteSpace=wrap;overflow=hidden;rounded=0;dashed=1;" vertex="1" parent="1">
                    <mxGeometry x="60" y="131" width="290" height="149" as="geometry"/>
                </mxCell>
                <mxCell id="33" value="支持离线固件包升级，但建议仅特殊场景使用，eg：特殊行业定制/维修/重置/测试/etc." style="text;html=1;strokeColor=default;fillColor=none;align=center;verticalAlign=middle;whiteSpace=wrap;rounded=0;dashed=1;" vertex="1" parent="1">
                    <mxGeometry x="405" y="187" width="260" height="30" as="geometry"/>
                </mxCell>
            </root>
        </mxGraphModel>
    </diagram>
</mxfile>